<svg width="376" height="468" viewBox="0 0 376 468" fill="none" xmlns="http://www.w3.org/2000/svg">
<g clip-path="url(#clip0_876_29078)">
<path d="M337.54 189.037C330.197 187.888 322.684 188.56 315.662 190.994C308.639 193.428 302.322 197.551 297.266 202.999C290.575 210.377 282.432 216.294 273.347 220.377C264.263 224.46 254.432 226.622 244.473 226.727H205.593C195.634 226.622 185.804 224.46 176.719 220.377C167.634 216.294 159.491 210.377 152.801 202.999C147.744 197.551 141.427 193.428 134.405 190.994C127.382 188.56 119.869 187.888 112.526 189.037C102.754 190.598 93.7533 195.289 86.8762 202.404C79.9991 209.519 75.6174 218.674 74.3898 228.493C73.6128 234.885 74.2011 241.369 76.1156 247.516C78.0301 253.663 81.2274 259.334 85.496 264.154C89.7646 268.974 95.0075 272.833 100.878 275.477C106.749 278.12 113.114 279.488 119.552 279.489C125.699 279.497 131.784 278.252 137.434 275.831C143.085 273.41 148.182 269.862 152.416 265.406C159.1 258.009 167.223 252.053 176.287 247.903C185.351 243.754 195.167 241.497 205.134 241.271H244.928C254.895 241.497 264.711 243.754 273.775 247.903C282.839 252.053 290.962 258.009 297.646 265.406C301.88 269.862 306.977 273.41 312.628 275.831C318.278 278.252 324.363 279.497 330.51 279.489C336.948 279.488 343.314 278.121 349.184 275.477C355.055 272.834 360.298 268.975 364.567 264.155C368.836 259.335 372.034 253.664 373.948 247.516C375.863 241.369 376.451 234.885 375.674 228.493C374.447 218.675 370.065 209.52 363.188 202.405C356.312 195.289 347.311 190.598 337.54 189.037Z" fill="white"/>
<path d="M241.527 128.087C235.762 126.316 229.65 125.989 223.729 127.134C217.808 128.279 212.258 130.862 207.569 134.654C201.344 139.809 194.122 143.621 186.354 145.853C178.587 148.085 170.442 148.687 162.431 147.623L149.281 145.735C141.294 144.502 133.648 141.631 126.822 137.304C119.997 132.976 114.139 127.285 109.616 120.587C106.184 115.628 101.585 111.588 96.2258 108.823C90.8661 106.057 84.9093 104.651 78.8788 104.728C70.8507 104.854 63.0805 107.584 56.7365 112.505C50.3924 117.426 45.8172 124.274 43.6986 132.019C42.3373 137.063 42.062 142.338 42.8907 147.496C43.7193 152.654 45.6332 157.578 48.5058 161.942C51.3785 166.306 55.1444 170.01 59.5548 172.81C63.9652 175.611 68.9196 177.443 74.0907 178.186C79.0271 178.902 84.0576 178.605 88.8752 177.312C93.6928 176.019 98.1964 173.757 102.111 170.666C108.332 165.496 115.543 161.65 123.302 159.362C131.061 157.075 139.205 156.395 147.236 157.363L161.121 159.358C169.1 160.688 176.724 163.633 183.525 168.012C190.327 172.39 196.164 178.111 200.679 184.823C203.565 188.891 207.25 192.328 211.509 194.925C215.768 197.521 220.512 199.223 225.45 199.925C230.622 200.667 235.892 200.303 240.912 198.857C245.932 197.411 250.589 194.917 254.573 191.538C258.558 188.159 261.78 183.972 264.027 179.256C266.274 174.539 267.494 169.399 267.607 164.176C267.753 156.147 265.29 148.289 260.587 141.781C255.884 135.273 249.195 130.467 241.527 128.087Z" fill="white"/>
<path d="M155.582 70.6569C151.655 69.2462 147.441 68.8216 143.311 69.421C139.182 70.0204 135.262 71.6254 131.898 74.0945C127.429 77.4553 122.313 79.8562 116.871 81.1466C111.43 82.4371 105.781 82.5892 100.278 81.5934L91.2507 79.8612C85.7702 78.7499 80.5785 76.5179 76.0011 73.3054C71.4238 70.093 67.5595 65.9696 64.6509 61.1934C62.4393 57.6545 59.3921 54.7128 55.7773 52.6276C52.1625 50.5423 48.0908 49.3772 43.9201 49.2345C38.3671 49.0615 32.908 50.6959 28.3633 53.8917C23.8187 57.0874 20.4342 61.6719 18.7186 66.9562C17.6141 70.3984 17.2526 74.0361 17.6581 77.6283C18.0636 81.2205 19.2267 84.6853 21.0707 87.7946C22.9147 90.9039 25.3976 93.5869 28.3552 95.6655C31.3128 97.744 34.6779 99.171 38.228 99.8526C41.6167 100.507 45.1033 100.465 48.475 99.7273C51.8467 98.9898 55.0328 97.5731 57.8388 95.5635C62.3067 92.1919 67.4155 89.7673 72.8525 88.438C78.2896 87.1087 83.9406 86.903 89.4601 87.8327L98.9924 89.6615C104.464 90.8403 109.638 93.1228 114.197 96.3699C118.756 99.6169 122.604 103.76 125.507 108.546C127.371 111.451 129.807 113.945 132.666 115.878C135.526 117.81 138.749 119.14 142.139 119.786C145.689 120.467 149.344 120.386 152.86 119.549C156.377 118.713 159.677 117.14 162.54 114.934C165.404 112.727 167.767 109.938 169.473 106.751C171.179 103.564 172.189 100.051 172.437 96.4447C172.798 90.9009 171.35 85.3898 168.311 80.7395C165.271 76.0891 160.805 72.5511 155.582 70.6569V70.6569Z" fill="white"/>
<path d="M91.9738 27.4448C89.5419 26.0584 86.8067 25.2904 84.0086 25.2089C81.2106 25.1273 78.4353 25.7344 75.9268 26.9767C72.5849 28.6805 68.927 29.6753 65.1825 29.8987C61.4381 30.1222 57.6878 29.5697 54.167 28.2755L48.4023 26.0871C44.9096 24.7188 41.7373 22.6436 39.0844 19.9915C36.4315 17.3393 34.3553 14.1675 32.9858 10.6752C31.9338 8.08107 30.2606 5.78499 28.1134 3.98908C25.9662 2.19317 23.4107 0.952406 20.6715 0.375591C17.0224 -0.381086 13.2263 0.0671447 9.85383 1.65307C6.48136 3.23899 3.71476 5.87665 1.97 9.16982C0.842034 11.3164 0.182503 13.6782 0.0348944 16.0986C-0.112714 18.519 0.25501 20.9434 1.11377 23.2112C1.97254 25.4789 3.30274 27.5383 5.01656 29.2538C6.73037 30.9693 8.78874 32.3015 11.0556 33.1625C13.219 33.9871 15.5278 34.3624 17.8409 34.2651C20.1541 34.1679 22.4232 33.6001 24.5097 32.5968C27.8517 30.8858 31.5077 29.8747 35.2539 29.6253C39.0001 29.3759 42.7578 29.8935 46.2971 31.1465L52.3837 33.4577C55.8627 34.8695 59.0172 36.9761 61.654 39.649C64.2909 42.3218 66.3548 45.5045 67.7193 49.0024C68.6145 51.1376 69.9352 53.0677 71.601 54.6755C73.2668 56.2833 75.2428 57.535 77.4083 58.3539C79.6753 59.2143 82.0992 59.5836 84.5196 59.4377C86.94 59.2918 89.3019 58.6338 91.4492 57.5074C93.5965 56.3809 95.4804 54.8117 96.9762 52.9032C98.472 50.9947 99.5457 48.7904 100.127 46.4361C101.007 42.8146 100.688 39.005 99.2181 35.5802C97.7479 32.1555 95.2057 29.3007 91.9738 27.4448V27.4448Z" fill="white"/>
<path d="M241.527 339.912C235.762 341.683 229.65 342.011 223.729 340.865C217.808 339.72 212.258 337.138 207.569 333.346C201.344 328.191 194.122 324.379 186.354 322.147C178.586 319.916 170.441 319.313 162.43 320.378L149.28 322.266C141.293 323.499 133.647 326.37 126.821 330.697C119.996 335.025 114.138 340.715 109.615 347.413C106.183 352.372 101.585 356.412 96.225 359.178C90.8654 361.943 84.9085 363.349 78.878 363.273C70.8499 363.146 63.0797 360.417 56.7356 355.496C50.3916 350.574 45.8163 343.727 43.6977 335.982C42.3365 330.938 42.0612 325.662 42.8898 320.504C43.7185 315.346 45.6324 310.422 48.505 306.059C51.3776 301.695 55.1436 297.991 59.554 295.19C63.9644 292.39 68.9188 290.557 74.0899 289.814C79.0263 289.098 84.0568 289.396 88.8744 290.689C93.692 291.982 98.1955 294.243 102.11 297.335C108.332 302.505 115.542 306.351 123.301 308.638C131.06 310.926 139.204 311.606 147.235 310.637L161.121 308.643C169.099 307.312 176.723 304.367 183.524 299.989C190.326 295.61 196.163 289.89 200.678 283.178C203.564 279.11 207.25 275.673 211.509 273.076C215.768 270.479 220.511 268.778 225.449 268.076C230.621 267.334 235.891 267.698 240.911 269.143C245.931 270.589 250.588 273.084 254.572 276.463C258.557 279.842 261.779 284.028 264.026 288.745C266.273 293.462 267.493 298.602 267.606 303.825C267.752 311.853 265.289 319.711 260.586 326.219C255.883 332.727 249.195 337.532 241.527 339.912V339.912Z" fill="white"/>
<path d="M155.582 397.343C151.655 398.754 147.441 399.178 143.311 398.578C139.182 397.979 135.262 396.374 131.898 393.905C127.429 390.545 122.313 388.144 116.871 386.853C111.43 385.563 105.781 385.411 100.278 386.406L91.2507 388.138C85.7702 389.249 80.5785 391.481 76.0011 394.694C71.4238 397.906 67.5595 402.03 64.6509 406.806C62.4393 410.345 59.3921 413.286 55.7773 415.372C52.1625 417.457 48.0908 418.622 43.9201 418.765C38.3671 418.938 32.908 417.304 28.3633 414.108C23.8187 410.912 20.4342 406.327 18.7186 401.043C17.6141 397.601 17.2526 393.964 17.6581 390.372C18.0636 386.779 19.2267 383.314 21.0707 380.205C22.9147 377.095 25.3976 374.413 28.3552 372.334C31.3128 370.256 34.6779 368.828 38.228 368.147C41.6167 367.492 45.1033 367.535 48.475 368.272C51.8467 369.009 55.0328 370.426 57.8388 372.436C62.3067 375.807 67.4155 378.232 72.8525 379.561C78.2896 380.891 83.9406 381.097 89.4601 380.167L98.9924 378.338C104.464 377.159 109.638 374.876 114.197 371.629C118.756 368.382 122.604 364.24 125.507 359.454C127.371 356.549 129.806 354.053 132.666 352.121C135.525 350.188 138.749 348.858 142.139 348.212C145.689 347.531 149.344 347.612 152.86 348.448C156.377 349.285 159.677 350.858 162.54 353.064C165.404 355.27 167.767 358.059 169.473 361.246C171.179 364.433 172.189 367.946 172.437 371.553C172.798 377.097 171.351 382.609 168.311 387.259C165.272 391.91 160.805 395.449 155.582 397.343V397.343Z" fill="white"/>
<path d="M91.9738 440.556C89.5419 441.943 86.8067 442.71 84.0086 442.792C81.2105 442.873 78.4353 442.266 75.9268 441.024C72.5849 439.32 68.927 438.325 65.1825 438.102C61.4381 437.878 57.6878 438.431 54.167 439.725L48.4022 441.914C44.9096 443.282 41.7373 445.357 39.0844 448.01C36.4315 450.662 34.3552 453.833 32.9858 457.326C31.9338 459.92 30.2606 462.215 28.1134 464.011C25.9662 465.807 23.4107 467.049 20.6715 467.625C17.0224 468.382 13.2262 467.933 9.85375 466.347C6.48128 464.761 3.71468 462.123 1.96999 458.83C0.842087 456.684 0.182573 454.322 0.0350012 451.902C-0.11257 449.481 0.255183 447.058 1.11394 444.79C1.9727 442.522 3.30295 440.462 5.01673 438.747C6.7305 437.031 8.78877 435.699 11.0556 434.838C13.219 434.013 15.5278 433.639 17.8409 433.736C20.1541 433.833 22.4232 434.4 24.5097 435.404C27.8518 437.115 31.5077 438.126 35.2539 438.375C39.0001 438.625 42.7578 438.107 46.2971 436.854L52.3837 434.541C55.8627 433.13 59.0172 431.023 61.654 428.35C64.2909 425.677 66.3548 422.494 67.7193 418.997C68.6145 416.861 69.9352 414.931 71.601 413.323C73.2668 411.715 75.2428 410.464 77.4082 409.645C79.6753 408.785 82.0991 408.415 84.5196 408.561C86.94 408.707 89.3019 409.365 91.4492 410.491C93.5965 411.618 95.4803 413.187 96.9762 415.096C98.472 417.004 99.5457 419.208 100.126 421.562C101.008 425.184 100.689 428.995 99.2189 432.42C97.7486 435.845 95.2061 438.7 91.9738 440.556V440.556Z" fill="white"/>
</g>
<defs>
<clipPath id="clip0_876_29078">
<rect width="376" height="468" fill="white"/>
</clipPath>
</defs>
</svg>
