<svg width="570" height="570" viewBox="0 0 570 570" fill="none" xmlns="http://www.w3.org/2000/svg">
<rect width="570" height="570" rx="200" fill="white"/>
<g clip-path="url(#clip0_623_11951)">
<path d="M425.791 244.265C418.877 243.223 411.804 243.832 405.192 246.037C398.58 248.243 392.633 251.978 387.872 256.914C381.573 263.598 373.907 268.958 365.354 272.658C356.8 276.357 347.545 278.316 338.168 278.411H301.564C292.187 278.316 282.932 276.357 274.379 272.658C265.826 268.958 258.159 263.598 251.86 256.914C247.1 251.978 241.152 248.243 234.541 246.037C227.929 243.832 220.855 243.223 213.942 244.265C204.742 245.679 196.268 249.928 189.793 256.375C183.318 262.821 179.193 271.115 178.037 280.011C177.306 285.802 177.86 291.676 179.662 297.245C181.465 302.815 184.475 307.953 188.494 312.319C192.512 316.686 197.449 320.182 202.976 322.577C208.503 324.972 214.495 326.211 220.557 326.212C226.345 326.22 232.073 325.092 237.393 322.898C242.713 320.704 247.512 317.491 251.498 313.453C257.791 306.751 265.438 301.356 273.972 297.596C282.506 293.837 291.748 291.792 301.131 291.588H338.597C347.981 291.792 357.222 293.837 365.756 297.596C374.29 301.356 381.938 306.751 388.23 313.453C392.216 317.491 397.016 320.704 402.336 322.898C407.655 325.092 413.384 326.22 419.172 326.212C425.233 326.212 431.226 324.973 436.753 322.578C442.281 320.183 447.217 316.687 451.236 312.32C455.255 307.953 458.266 302.815 460.068 297.246C461.871 291.676 462.425 285.802 461.693 280.011C460.538 271.116 456.412 262.821 449.938 256.375C443.464 249.929 434.99 245.679 425.791 244.265Z" fill="#CC0033"/>
<path d="M335.395 189.044C329.967 187.44 324.213 187.144 318.638 188.181C313.064 189.219 307.839 191.558 303.424 194.994C297.564 199.664 290.764 203.118 283.451 205.14C276.138 207.162 268.469 207.708 260.927 206.744L248.546 205.033C241.027 203.916 233.828 201.315 227.402 197.395C220.975 193.474 215.46 188.318 211.202 182.25C207.971 177.757 203.641 174.097 198.595 171.591C193.549 169.086 187.941 167.812 182.264 167.881C174.705 167.996 167.39 170.469 161.417 174.928C155.444 179.386 151.136 185.59 149.142 192.607C147.86 197.176 147.601 201.956 148.381 206.629C149.161 211.302 150.963 215.763 153.668 219.717C156.372 223.67 159.918 227.026 164.07 229.563C168.222 232.1 172.887 233.76 177.756 234.434C182.403 235.082 187.139 234.813 191.675 233.641C196.211 232.47 200.451 230.421 204.136 227.621C209.994 222.937 216.783 219.452 224.088 217.38C231.393 215.307 239.06 214.691 246.621 215.568L259.694 217.375C267.206 218.581 274.383 221.249 280.787 225.216C287.191 229.183 292.686 234.365 296.937 240.446C299.654 244.132 303.124 247.246 307.134 249.598C311.144 251.951 315.609 253.492 320.259 254.129C325.128 254.801 330.089 254.471 334.816 253.161C339.542 251.851 343.926 249.591 347.678 246.53C351.429 243.468 354.463 239.676 356.578 235.403C358.694 231.129 359.842 226.473 359.949 221.74C360.087 214.467 357.767 207.347 353.34 201.451C348.912 195.555 342.615 191.201 335.395 189.044Z" fill="#CC0033"/>
<path d="M254.479 137.014C250.782 135.736 246.814 135.351 242.926 135.894C239.038 136.437 235.348 137.891 232.181 140.128C227.973 143.173 223.156 145.348 218.033 146.518C212.91 147.687 207.592 147.824 202.411 146.922L193.912 145.353C188.752 144.346 183.864 142.324 179.554 139.414C175.245 136.503 171.607 132.767 168.868 128.44C166.786 125.234 163.917 122.569 160.514 120.68C157.11 118.791 153.277 117.735 149.35 117.606C144.122 117.449 138.983 118.93 134.704 121.825C130.425 124.72 127.239 128.874 125.623 133.661C124.583 136.78 124.243 140.075 124.625 143.33C125.007 146.584 126.102 149.723 127.838 152.54C129.574 155.357 131.912 157.788 134.696 159.671C137.481 161.554 140.649 162.847 143.991 163.465C147.182 164.058 150.464 164.019 153.639 163.351C156.813 162.683 159.813 161.4 162.455 159.579C166.661 156.524 171.471 154.328 176.59 153.123C181.709 151.919 187.029 151.733 192.226 152.575L201.2 154.232C206.352 155.3 211.223 157.368 215.515 160.309C219.807 163.251 223.431 167.005 226.164 171.341C227.918 173.973 230.212 176.232 232.904 177.983C235.596 179.734 238.631 180.939 241.822 181.524C245.165 182.141 248.606 182.067 251.917 181.31C255.228 180.552 258.334 179.127 261.03 177.128C263.726 175.129 265.951 172.602 267.557 169.715C269.163 166.827 270.114 163.645 270.347 160.377C270.688 155.355 269.324 150.362 266.463 146.149C263.601 141.935 259.396 138.73 254.479 137.014Z" fill="#CC0033"/>
<path d="M194.592 97.8646C192.303 96.6085 189.728 95.9127 187.093 95.8388C184.459 95.7649 181.846 96.3149 179.484 97.4405C176.338 98.984 172.894 99.8853 169.369 100.088C165.843 100.29 162.312 99.7897 158.998 98.6171L153.57 96.6345C150.282 95.3948 147.295 93.5147 144.798 91.1119C142.3 88.7092 140.345 85.8355 139.056 82.6715C138.065 80.3213 136.49 78.2411 134.468 76.6141C132.447 74.987 130.041 73.8629 127.462 73.3403C124.026 72.6548 120.452 73.0609 117.277 74.4977C114.102 75.9345 111.497 78.3242 109.855 81.3077C108.793 83.2525 108.172 85.3922 108.033 87.5851C107.894 89.7779 108.24 91.9744 109.049 94.0289C109.857 96.0835 111.109 97.9492 112.723 99.5035C114.337 101.058 116.275 102.265 118.409 103.045C120.446 103.792 122.619 104.132 124.797 104.044C126.975 103.956 129.111 103.441 131.076 102.532C134.222 100.982 137.664 100.066 141.191 99.84C144.718 99.6141 148.256 100.083 151.588 101.218L157.319 103.312C160.594 104.591 163.564 106.5 166.047 108.921C168.529 111.343 170.472 114.226 171.757 117.395C172.6 119.33 173.843 121.078 175.412 122.535C176.98 123.992 178.84 125.126 180.879 125.868C183.013 126.647 185.295 126.982 187.574 126.85C189.853 126.717 192.077 126.121 194.098 125.101C196.12 124.08 197.894 122.659 199.302 120.929C200.71 119.2 201.721 117.203 202.268 115.07C203.097 111.789 202.797 108.338 201.413 105.235C200.029 102.132 197.635 99.546 194.592 97.8646Z" fill="#CC0033"/>
<path d="M335.395 380.955C329.967 382.559 324.213 382.856 318.638 381.818C313.064 380.781 307.839 378.441 303.424 375.005C297.563 370.336 290.763 366.881 283.45 364.86C276.137 362.838 268.469 362.292 260.926 363.257L248.546 364.967C241.026 366.085 233.827 368.685 227.401 372.606C220.975 376.526 215.46 381.682 211.202 387.75C207.97 392.243 203.641 395.903 198.595 398.409C193.549 400.914 187.94 402.188 182.263 402.119C174.704 402.004 167.389 399.532 161.416 395.073C155.443 390.614 151.136 384.41 149.141 377.394C147.859 372.824 147.6 368.044 148.38 363.371C149.161 358.698 150.962 354.237 153.667 350.284C156.371 346.33 159.917 342.974 164.069 340.437C168.222 337.9 172.886 336.24 177.755 335.566C182.402 334.918 187.139 335.188 191.674 336.359C196.21 337.531 200.45 339.579 204.136 342.38C209.993 347.064 216.782 350.549 224.087 352.621C231.392 354.693 239.059 355.309 246.62 354.432L259.693 352.625C267.205 351.42 274.383 348.751 280.786 344.785C287.19 340.818 292.685 335.635 296.936 329.554C299.654 325.869 303.123 322.755 307.133 320.402C311.143 318.05 315.609 316.508 320.258 315.872C325.127 315.2 330.089 315.529 334.815 316.839C339.542 318.149 343.926 320.409 347.677 323.471C351.429 326.532 354.462 330.325 356.578 334.598C358.693 338.871 359.842 343.528 359.948 348.26C360.086 355.533 357.767 362.653 353.339 368.549C348.911 374.444 342.614 378.798 335.395 380.955Z" fill="#CC0033"/>
<path d="M254.479 432.986C250.782 434.264 246.814 434.648 242.926 434.105C239.038 433.562 235.348 432.108 232.181 429.871C227.973 426.827 223.156 424.651 218.033 423.482C212.91 422.313 207.592 422.175 202.411 423.078L193.912 424.646C188.752 425.653 183.864 427.675 179.554 430.586C175.245 433.496 171.607 437.232 168.868 441.559C166.786 444.765 163.917 447.43 160.514 449.32C157.11 451.209 153.277 452.264 149.35 452.394C144.122 452.55 138.983 451.07 134.704 448.175C130.425 445.28 127.239 441.126 125.623 436.338C124.583 433.22 124.243 429.924 124.625 426.67C125.007 423.415 126.102 420.276 127.838 417.459C129.574 414.642 131.912 412.212 134.696 410.328C137.481 408.445 140.649 407.152 143.991 406.535C147.182 405.941 150.464 405.98 153.639 406.648C156.813 407.316 159.813 408.6 162.455 410.42C166.661 413.475 171.471 415.672 176.59 416.876C181.709 418.08 187.029 418.267 192.226 417.425L201.2 415.768C206.352 414.7 211.223 412.632 215.515 409.69C219.807 406.748 223.431 402.995 226.164 398.659C227.918 396.027 230.211 393.766 232.904 392.015C235.596 390.264 238.63 389.059 241.822 388.474C245.165 387.857 248.606 387.93 251.917 388.688C255.228 389.446 258.334 390.871 261.03 392.87C263.726 394.869 265.951 397.395 267.557 400.283C269.163 403.17 270.114 406.353 270.347 409.62C270.688 414.643 269.325 419.637 266.463 423.85C263.602 428.064 259.396 431.27 254.479 432.986Z" fill="#CC0033"/>
<path d="M194.592 472.136C192.303 473.392 189.728 474.088 187.093 474.162C184.459 474.236 181.846 473.686 179.484 472.56C176.338 471.016 172.894 470.115 169.369 469.913C165.843 469.71 162.312 470.211 158.998 471.384L153.57 473.366C150.282 474.606 147.295 476.486 144.798 478.889C142.3 481.292 140.345 484.165 139.056 487.329C138.065 489.68 136.49 491.759 134.468 493.386C132.447 495.013 130.041 496.138 127.462 496.661C124.026 497.346 120.452 496.94 117.277 495.503C114.102 494.066 111.497 491.676 109.855 488.692C108.793 486.747 108.172 484.608 108.033 482.415C107.894 480.223 108.24 478.026 109.049 475.972C109.857 473.917 111.11 472.051 112.723 470.497C114.337 468.943 116.275 467.736 118.409 466.956C120.446 466.209 122.619 465.869 124.797 465.957C126.975 466.045 129.111 466.559 131.076 467.468C134.222 469.018 137.664 469.934 141.191 470.16C144.718 470.386 148.256 469.917 151.588 468.782L157.319 466.687C160.594 465.408 163.564 463.499 166.047 461.078C168.529 458.656 170.472 455.773 171.757 452.604C172.6 450.669 173.843 448.92 175.412 447.464C176.98 446.007 178.84 444.873 180.879 444.131C183.013 443.352 185.295 443.017 187.574 443.149C189.853 443.281 192.077 443.877 194.098 444.898C196.12 445.918 197.894 447.341 199.302 449.07C200.71 450.799 201.721 452.795 202.268 454.928C203.098 458.21 202.798 461.662 201.414 464.765C200.029 467.868 197.636 470.455 194.592 472.136Z" fill="#CC0033"/>
</g>
<defs>
<clipPath id="clip0_623_11951">
<rect width="354" height="424" fill="white" transform="translate(108 73)"/>
</clipPath>
</defs>
</svg>
